<?xml version="1.0" standalone="no"?><!DOCTYPE svg PUBLIC "-//W3C//DTD SVG 1.1//EN" "http://www.w3.org/Graphics/SVG/1.1/DTD/svg11.dtd"><svg xmlns="http://www.w3.org/2000/svg" version="1.1" width="668.152" height="941" xmlns:xlink="http://www.w3.org/1999/xlink" xlink="http://www.w3.org/1999/xlink" style="position:relative;overflow:hidden;" viewBox="31.181 19.833 668.152 941"><defs><filter id="541ed9ec-abcd-4b61-b612-49a1ddfbe3d2" x="-0.5" y="-0.5" width="2" height="2"><feFlood flood-color="#000" flood-opacity="0.6" result="flood"/><feComposite in="flood" in2="SourceAlpha" operator="in" result="mask"/><feGaussianBlur in="mask" stdDeviation="2"/><feOffset dx="1.25" dy="1.25" result="oEffect0"/><feMerge><feMergeNode in="oEffect0"/><feMergeNode in="SourceGraphic"/></feMerge></filter><filter id="43487968-95ec-45d8-9e2f-deace1596cd2" x="-0.5" y="-0.5" width="2" height="2"><feMerge><feMergeNode in="SourceGraphic"/></feMerge></filter></defs><g><g width="213.638" height="25" transform="scale(1,1) translate(43.181,62.333)"><g stroke="#7F7F7F" opacity="1" stroke-width="0" stroke-dasharray="none" width="213.638" height="25" transform="scale(1,1) translate(0,0)" fill="none" stroke-opacity="1"><rect width="213.638" height="25"/></g><g width="213.63827514648438" height="24.999998092651367" transform="scale(1,1) translate(0,0)"><text width="213.63827514648438" height="24.999998092651367" transform="scale(1,1) translate(0,0)" xml:space="preserve"><tspan xml:space="preserve" text-rendering="optimizeSpeed" font-size="22.22222222222222" font-weight="bold" font-style="normal" fill="#333333" opacity="1" x="0" text-anchor="start" y="19.792" textLength="213.63827514648438" style="font-family: Arial, Helvetica Neue, Helvetica, sans-serif;">Purchasing Process</tspan></text></g></g><g width="0" height="890.958" transform="scale(1,1) translate(374.833,32.333)"><g fill="#545454" stroke="#545454" stroke-opacity="1" transform="scale(1,1) translate(0,0)"><path fill="none" stroke-width="1" stroke-dasharray="none" d="M0,0 L0,0 M0,0 L0,0 M0,890.958 L0,890.958 M0,0 L0,0 M0,76.667 L0,116.667 M0,202.667 L0,242.667 M0,353.667 L0,393.667 M0,487.792 L0,527.792 M0,613.792 L0,653.792 M0,764.792 L0,804.792"/><g><g stroke-dasharray="none"><path d="M5,116.667L0,126.667L-5,116.667z" stroke="none" fill-opacity="1"/></g><g stroke-dasharray="none"><path d="M5,242.667L0,252.667L-5,242.667z" stroke="none" fill-opacity="1"/></g><g stroke-dasharray="none"><path d="M5,393.667L0,403.667L-5,393.667z" stroke="none" fill-opacity="1"/></g><g stroke-dasharray="none"><path d="M5,527.792L0,537.792L-5,527.792z" stroke="none" fill-opacity="1"/></g><g stroke-dasharray="none"><path d="M5,653.792L0,663.792L-5,653.792z" stroke="none" fill-opacity="1"/></g><g stroke-dasharray="none"><path d="M5,804.792L0,814.792L-5,804.792z" stroke="none" fill-opacity="1"/></g></g></g><g stroke-width="0" stroke-dasharray="none" fill="#FFFFFF" opacity="1" width="29.784" height="17.625" transform="scale(1,1) translate(-15.892,360.542)"><rect width="29.784" height="17.625"/></g><g width="27.784347534179688" height="50" transform="scale(1,1) translate(-14.892,361.542)"><text width="27.784347534179688" height="15.624999046325684" transform="scale(1,1) translate(0,0)" xml:space="preserve"><tspan xml:space="preserve" text-rendering="optimizeSpeed" font-size="13.88888888888889" font-weight="normal" font-style="normal" fill="#333333" opacity="1" x="0" text-anchor="start" y="12.5" textLength="27.784347534179688" style="font-family: Arial, Helvetica Neue, Helvetica, sans-serif;">YES</tspan></text></g></g><g width="166.25" height="83.125" transform="scale(1,1) translate(291.708,436)"><g stroke="#545454" opacity="1" stroke-width="1" stroke-dasharray="none" width="166.25" height="83.125" transform="scale(1,1) translate(0,0)" fill="url(#b9aebff5-3d7f-419d-962b-356b396a385d)" stroke-opacity="1" filter="url(#541ed9ec-abcd-4b61-b612-49a1ddfbe3d2)"><linearGradient id="b9aebff5-3d7f-419d-962b-356b396a385d" x1="83.125" y1="0" x2="83.125" y2="83.125" gradientUnits="userSpaceOnUse"><stop offset="0%" style="stop-color:#C4D5E6;stop-opacity:1;"/><stop offset="100%" style="stop-color:#B6CDE4;stop-opacity:1;"/></linearGradient><rect width="166.25" height="83.125"/></g><g width="161.24999046325684" height="78.12499523162842" transform="scale(1,1) translate(2.5,2.5)"><text width="161.24999046325684" height="78.12499523162842" transform="scale(1,1) translate(0,0)" xml:space="preserve"><tspan xml:space="preserve" text-rendering="optimizeSpeed" font-size="13.88888888888889" font-weight="normal" font-style="normal" fill="#333333" opacity="1" x="5.767" text-anchor="start" y="12.5" textLength="145.85763549804688" style="font-family: Arial, Helvetica Neue, Helvetica, sans-serif;">- Revertir la posición de</tspan><tspan xml:space="preserve" text-rendering="optimizeSpeed" font-size="13.88888888888889" font-weight="normal" font-style="normal" fill="#333333" opacity="1" x="40.881" text-anchor="start" y="28.125" textLength="79.48846435546875" style="font-family: Arial, Helvetica Neue, Helvetica, sans-serif;">los números.</tspan><tspan xml:space="preserve" text-rendering="optimizeSpeed" font-size="13.88888888888889" font-weight="normal" font-style="normal" fill="#333333" opacity="1" x="3.462" text-anchor="start" y="43.75" textLength="150.468017578125" style="font-family: Arial, Helvetica Neue, Helvetica, sans-serif;">- Multiplicar los números</tspan><tspan xml:space="preserve" text-rendering="optimizeSpeed" font-size="13.88888888888889" font-weight="normal" font-style="normal" fill="#333333" opacity="1" x="6.14" text-anchor="start" y="59.375" textLength="148.9696807861328" style="font-family: Arial, Helvetica Neue, Helvetica, sans-serif;">de las pocisiones pares.</tspan></text></g></g><g width="200" height="100" transform="scale(1,1) translate(274.833,285)"><g transform="scale(1,1) translate(0,0)" stroke="#7F7F7F" fill="url(#5062268c-5123-4311-85e4-031fc50ce90d)" stroke-opacity="1" filter="url(#541ed9ec-abcd-4b61-b612-49a1ddfbe3d2)"><linearGradient id="5062268c-5123-4311-85e4-031fc50ce90d" x1="100" y1="0" x2="100" y2="100" gradientUnits="userSpaceOnUse"><stop offset="0%" style="stop-color:#CDC29C;stop-opacity:1;"/><stop offset="100%" style="stop-color:#CBBB85;stop-opacity:1;"/></linearGradient><path d="M100,0 L200,50 L100,100 L0,50 L100,0 z" stroke-width="1" stroke-dasharray="none"/></g><g width="95.5" height="45.5" transform="scale(1,1) translate(52.25,27.25)"><text width="95.5" height="31.249998092651367" transform="scale(1,1) translate(0,7.125000953674316)" xml:space="preserve"><tspan xml:space="preserve" text-rendering="optimizeSpeed" font-size="13.88888888888889" font-weight="normal" font-style="normal" fill="#333333" opacity="1" x="14.369" text-anchor="start" y="12.5" textLength="62.904624938964844" style="font-family: Arial, Helvetica Neue, Helvetica, sans-serif;">número !=</tspan><tspan xml:space="preserve" text-rendering="optimizeSpeed" font-size="13.88888888888889" font-weight="normal" font-style="normal" fill="#333333" opacity="1" x="31.542" text-anchor="start" y="28.125" textLength="32.41508483886719" style="font-family: Arial, Helvetica Neue, Helvetica, sans-serif;">vacio</tspan></text></g></g><g width="151.333" height="75.667" transform="scale(1,1) translate(299.167,32.333)"><g transform="scale(1,1) translate(0,0)" stroke="#7F7F7F" fill="url(#0982c8c6-28bf-4edb-b12e-64e9a44c4f0c)" stroke-opacity="1" filter="url(#541ed9ec-abcd-4b61-b612-49a1ddfbe3d2)"><linearGradient id="0982c8c6-28bf-4edb-b12e-64e9a44c4f0c" x1="75.66666666666666" y1="0" x2="75.66666666666666" y2="75.66666666666666" gradientUnits="userSpaceOnUse"><stop offset="0%" style="stop-color:#92B0CF;stop-opacity:1;"/><stop offset="100%" style="stop-color:#8CA8CD;stop-opacity:1;"/></linearGradient><path d="M37,0 L28.675,0.949 L25.303,1.897 L22.769,2.846 L20.678,3.795 L18.875,4.744 L17.281,5.692 L15.85,6.641 L14.549,7.59 L13.358,8.538 L12.26,9.487 L11.244,10.436 L10.301,11.385 L9.422,12.333 L8.602,13.282 L7.836,14.231 L7.119,15.179 L6.449,16.128 L5.822,17.077 L5.236,18.026 L4.688,18.974 L4.177,19.923 L3.7,20.872 L3.257,21.821 L2.846,22.769 L2.466,23.718 L2.116,24.667 L1.795,25.615 L1.502,26.564 L1.237,27.513 L0.999,28.462 L0.787,29.41 L0.601,30.359 L0.44,31.308 L0.305,32.256 L0.195,33.205 L0.11,34.154 L0.049,35.103 L0.012,36.051 L0,37 L0,38.667 L0.012,39.615 L0.049,40.564 L0.11,41.513 L0.195,42.462 L0.305,43.41 L0.44,44.359 L0.601,45.308 L0.787,46.256 L0.999,47.205 L1.237,48.154 L1.502,49.103 L1.795,50.051 L2.116,51 L2.466,51.949 L2.846,52.897 L3.257,53.846 L3.7,54.795 L4.177,55.744 L4.688,56.692 L5.236,57.641 L5.822,58.59 L6.449,59.538 L7.119,60.487 L7.836,61.436 L8.602,62.385 L9.422,63.333 L10.301,64.282 L11.244,65.231 L12.26,66.179 L13.358,67.128 L14.549,68.077 L15.85,69.026 L17.281,69.974 L18.875,70.923 L20.678,71.872 L22.769,72.821 L25.303,73.769 L28.675,74.718 L37,75.667 L114.333,75.667 L122.658,74.718 L126.03,73.769 L128.564,72.821 L130.656,71.872 L132.459,70.923 L134.052,69.974 L135.484,69.026 L136.784,68.077 L137.975,67.128 L139.073,66.179 L140.089,65.231 L141.033,64.282 L141.912,63.333 L142.732,62.385 L143.498,61.436 L144.214,60.487 L144.884,59.538 L145.511,58.59 L146.098,57.641 L146.646,56.692 L147.157,55.744 L147.633,54.795 L148.076,53.846 L148.487,52.897 L148.867,51.949 L149.217,51 L149.538,50.051 L149.831,49.103 L150.096,48.154 L150.335,47.205 L150.547,46.256 L150.732,45.308 L150.893,44.359 L151.028,43.41 L151.138,42.462 L151.224,41.513 L151.285,40.564 L151.321,39.615 L151.333,38.667 L151.333,37 L151.321,36.051 L151.285,35.103 L151.224,34.154 L151.138,33.205 L151.028,32.256 L150.893,31.308 L150.732,30.359 L150.547,29.41 L150.335,28.462 L150.096,27.513 L149.831,26.564 L149.538,25.615 L149.217,24.667 L148.867,23.718 L148.487,22.769 L148.076,21.821 L147.633,20.872 L147.157,19.923 L146.646,18.974 L146.098,18.026 L145.511,17.077 L144.884,16.128 L144.214,15.179 L143.498,14.231 L142.732,13.282 L141.912,12.333 L141.033,11.385 L140.089,10.436 L139.073,9.487 L137.975,8.538 L136.784,7.59 L135.484,6.641 L134.052,5.692 L132.459,4.744 L130.656,3.795 L128.564,2.846 L126.03,1.897 L122.658,0.949 L114.333,0 L37,0 z" stroke-width="1" stroke-dasharray="none"/></g><g width="102.30171956066665" height="48.79730638933333" transform="scale(1,1) translate(24.516,13.435)"><text width="102.30171956066665" height="15.624999046325684" transform="scale(1,1) translate(0,16.586153671503823)" xml:space="preserve"><tspan xml:space="preserve" text-rendering="optimizeSpeed" font-size="13.88888888888889" font-weight="normal" font-style="normal" fill="#333333" opacity="1" x="29.936" text-anchor="start" y="12.5" textLength="42.42913055419922" style="font-family: Arial, Helvetica Neue, Helvetica, sans-serif;">INICIO</tspan></text></g></g><g width="219" height="0" transform="scale(1,1) translate(474.833,335)"><g fill="#545454" stroke="#545454" stroke-opacity="1" transform="scale(1,1) translate(0,0)"><path fill="none" stroke-width="1" stroke-dasharray="none" d="M68.833,0 L68.833,0 M0,0 L58.833,0 M219,0 L219,0 M68.833,0 L68.833,0"/><g><g stroke-dasharray="none"><path d="M58.833,-5L68.833,0L58.833,5z" stroke="none" fill-opacity="1"/></g></g></g><g stroke-width="0" stroke-dasharray="none" fill="#FFFFFF" opacity="1" width="22.828" height="17.625" transform="scale(1,1) translate(23.003,-8.812)"><rect width="22.828" height="17.625"/></g><g width="20.8281192779541" height="40" transform="scale(1,1) translate(24.003,-7.812)"><text width="20.8281192779541" height="15.624999046325684" transform="scale(1,1) translate(0,0)" xml:space="preserve"><tspan xml:space="preserve" text-rendering="optimizeSpeed" font-size="13.88888888888889" font-weight="normal" font-style="normal" fill="#333333" opacity="1" x="0" text-anchor="start" y="12.5" textLength="20.8281192779541" style="font-family: Arial, Helvetica Neue, Helvetica, sans-serif;">NO</tspan></text></g></g><g width="150.167" height="75" transform="scale(1,1) translate(543.667,297.5)"><g transform="scale(1,1) translate(0,0)" stroke="#7F7F7F" fill="url(#8d10853a-5b18-42ce-86be-24696c16afff)" stroke-opacity="1" filter="url(#541ed9ec-abcd-4b61-b612-49a1ddfbe3d2)"><linearGradient id="8d10853a-5b18-42ce-86be-24696c16afff" x1="74.08333333333333" y1="0" x2="74.08333333333333" y2="73.52573898471701" gradientUnits="userSpaceOnUse"><stop offset="0%" style="stop-color:#C4D5E6;stop-opacity:1;"/><stop offset="100%" style="stop-color:#B6CDE4;stop-opacity:1;"/></linearGradient><path d="M0,59.011 L0,59.011 L0,0 L0,0 L0,0 L148.167,0 L148.167,0 L148.167,0 L148.167,58.368 L148.167,58.368 L148.167,58.368 L147.412,57.821 L146.657,57.286 L145.902,56.761 L145.147,56.248 L144.392,55.746 L143.637,55.256 L142.882,54.776 L142.127,54.307 L141.372,53.85 L140.617,53.404 L139.863,52.969 L139.108,52.545 L138.353,52.132 L137.598,51.73 L136.843,51.34 L136.088,50.961 L135.333,50.593 L134.578,50.236 L133.823,49.89 L133.068,49.555 L132.313,49.232 L131.558,48.919 L130.803,48.618 L130.048,48.328 L129.294,48.049 L128.539,47.781 L127.784,47.525 L127.029,47.279 L126.274,47.045 L125.519,46.822 L124.764,46.61 L124.009,46.409 L123.254,46.22 L122.499,46.041 L121.744,45.874 L120.989,45.718 L120.234,45.573 L119.48,45.439 L118.725,45.316 L117.97,45.205 L117.215,45.104 L116.46,45.015 L115.705,44.937 L114.95,44.87 L114.195,44.814 L113.44,44.77 L112.685,44.736 L111.93,44.714 L111.175,44.703 L110.42,44.703 L109.666,44.714 L108.911,44.736 L108.156,44.77 L107.401,44.814 L106.646,44.87 L105.891,44.937 L105.136,45.015 L104.381,45.104 L103.626,45.205 L102.871,45.316 L102.116,45.439 L101.361,45.573 L100.606,45.718 L99.852,45.874 L99.097,46.041 L98.342,46.22 L97.587,46.409 L96.832,46.61 L96.077,46.822 L95.322,47.045 L94.567,47.279 L93.812,47.525 L93.057,47.781 L92.302,48.049 L91.547,48.328 L90.792,48.618 L90.038,48.919 L89.283,49.232 L88.528,49.555 L87.773,49.89 L87.018,50.236 L86.263,50.593 L85.508,50.961 L84.753,51.34 L83.998,51.73 L83.243,52.132 L82.488,52.545 L81.733,52.969 L80.978,53.404 L80.223,53.85 L79.469,54.307 L78.714,54.776 L77.959,55.256 L77.204,55.746 L76.449,56.248 L75.694,56.761 L74.939,57.286 L74.184,57.821 L73.429,58.368 L73.429,58.368 L73.429,58.368 L72.739,58.968 L72.048,59.555 L71.356,60.131 L70.663,60.694 L69.969,61.246 L69.274,61.785 L68.578,62.312 L67.881,62.827 L67.182,63.33 L66.483,63.821 L65.783,64.3 L65.081,64.767 L64.379,65.221 L63.675,65.663 L62.97,66.094 L62.265,66.512 L61.558,66.918 L60.85,67.312 L60.141,67.694 L59.431,68.064 L58.72,68.421 L58.008,68.767 L57.295,69.1 L56.581,69.422 L55.865,69.731 L55.149,70.028 L54.432,70.313 L53.713,70.586 L52.994,70.846 L52.273,71.095 L51.552,71.332 L50.829,71.556 L50.105,71.769 L49.381,71.969 L48.655,72.157 L47.928,72.333 L47.2,72.497 L46.471,72.649 L45.741,72.788 L45.01,72.916 L44.278,73.031 L43.544,73.135 L42.81,73.226 L42.075,73.305 L41.338,73.372 L40.601,73.427 L39.862,73.47 L39.123,73.501 L38.382,73.519 L37.64,73.526 L36.897,73.52 L36.154,73.502 L35.409,73.473 L34.663,73.431 L33.916,73.377 L33.168,73.31 L32.419,73.232 L31.668,73.142 L30.917,73.039 L30.165,72.925 L29.412,72.798 L28.657,72.659 L27.902,72.508 L27.145,72.345 L26.388,72.17 L25.629,71.983 L24.869,71.784 L24.109,71.572 L23.347,71.349 L22.584,71.113 L21.82,70.865 L21.055,70.605 L20.289,70.333 L19.522,70.049 L18.754,69.753 L17.984,69.445 L17.214,69.124 L16.443,68.792 L15.67,68.447 L14.897,68.09 L14.122,67.721 L13.347,67.34 L12.57,66.947 L11.792,66.542 L11.014,66.125 L10.234,65.695 L9.453,65.254 L8.671,64.8 L7.888,64.334 L7.104,63.857 L6.319,63.367 L5.533,62.865 L4.746,62.35 L3.957,61.824 L3.168,61.286 L2.378,60.735 L1.586,60.173 L0.794,59.598 L0,59.011 L0,59.011 z" stroke-width="2" stroke-dasharray="none"/></g><g width="144.16666666666666" height="39.8" transform="scale(1,1) translate(3,3)"><text width="144.16666666666666" height="31.249998092651367" transform="scale(1,1) translate(0,4.275000953674315)" xml:space="preserve"><tspan xml:space="preserve" text-rendering="optimizeSpeed" font-size="13.88888888888889" font-weight="normal" font-style="normal" fill="#333333" opacity="1" x="42.753" text-anchor="start" y="12.5" textLength="58.660362243652344" style="font-family: Arial, Helvetica Neue, Helvetica, sans-serif;">Purchase</tspan><tspan xml:space="preserve" text-rendering="optimizeSpeed" font-size="13.88888888888889" font-weight="normal" font-style="normal" fill="#333333" opacity="1" x="37.736" text-anchor="start" y="28.125" textLength="68.69470977783203" style="font-family: Arial, Helvetica Neue, Helvetica, sans-serif;">Requisition</tspan></text></g></g><g width="92.333" height="21" transform="scale(1,1) translate(420,934.833)"><g stroke="#7F7F7F" opacity="1" stroke-width="0" stroke-dasharray="none" width="92.333" height="21" transform="scale(1,1) translate(0,0)" fill="none" stroke-opacity="1"><rect width="92.333" height="21"/></g><g width="92.33333333333333" height="21" transform="scale(1,1) translate(0,0)"><text width="92.33333333333333" height="15.624999046325684" transform="scale(1,1) translate(0,2.687500476837158)" xml:space="preserve"><tspan xml:space="preserve" text-rendering="optimizeSpeed" font-size="13.88888888888889" font-weight="normal" font-style="normal" fill="#333333" opacity="1" x="0" text-anchor="start" y="12.5" textLength="77.94938659667969" style="font-family: Arial, Helvetica Neue, Helvetica, sans-serif;">To Controller</tspan></text></g></g><g width="150" height="75" transform="scale(1,1) translate(299.833,159)"><g transform="scale(1,1) translate(0,0)" stroke="#7F7F7F" fill="url(#7db54e8e-97df-46f5-9ca4-59949aa51ec0)" stroke-opacity="1" filter="url(#43487968-95ec-45d8-9e2f-deace1596cd2)"><linearGradient id="7db54e8e-97df-46f5-9ca4-59949aa51ec0" x1="75" y1="0" x2="75" y2="75" gradientUnits="userSpaceOnUse"><stop offset="0%" style="stop-color:#C4D5E6;stop-opacity:1;"/><stop offset="100%" style="stop-color:#B6CDE4;stop-opacity:1;"/></linearGradient><path d="M20,0 L150,0 L130,75 L0,75 L20,0 z" stroke-width="1" stroke-dasharray="none"/></g><g width="109.87229862475442" height="52.55402750491159" transform="scale(1,1) translate(20.064,11.223)"><text width="109.87229862475442" height="31.249998092651367" transform="scale(1,1) translate(0,10.65201470613011)" xml:space="preserve"><tspan xml:space="preserve" text-rendering="optimizeSpeed" font-size="13.88888888888889" font-weight="normal" font-style="normal" fill="#333333" opacity="1" x="9.012" text-anchor="start" y="12.5" textLength="87.99056243896484" style="font-family: Arial, Helvetica Neue, Helvetica, sans-serif;">Número de 13</tspan><tspan xml:space="preserve" text-rendering="optimizeSpeed" font-size="13.88888888888889" font-weight="normal" font-style="normal" fill="#333333" opacity="1" x="34.481" text-anchor="start" y="28.125" textLength="40.910377502441406" style="font-family: Arial, Helvetica Neue, Helvetica, sans-serif;">dígitos</tspan></text></g></g><g width="150" height="75" transform="scale(1,1) translate(299.833,570.125)"><g stroke="#7F7F7F" opacity="1" stroke-width="1" stroke-dasharray="none" width="150" height="75" transform="scale(1,1) translate(0,0)" fill="url(#ab2f3fcc-5e9e-4f9b-b29a-6142e0cedd24)" stroke-opacity="1" filter="url(#43487968-95ec-45d8-9e2f-deace1596cd2)"><linearGradient id="ab2f3fcc-5e9e-4f9b-b29a-6142e0cedd24" x1="75" y1="0" x2="75" y2="75" gradientUnits="userSpaceOnUse"><stop offset="0%" style="stop-color:#C4D5E6;stop-opacity:1;"/><stop offset="100%" style="stop-color:#B6CDE4;stop-opacity:1;"/></linearGradient><rect width="150" height="75"/></g><g width="145" height="70" transform="scale(1,1) translate(2.5,2.5)"><text width="145" height="62.499996185302734" transform="scale(1,1) translate(0,3.750001907348633)" xml:space="preserve"><tspan xml:space="preserve" text-rendering="optimizeSpeed" font-size="13.88888888888889" font-weight="normal" font-style="normal" fill="#333333" opacity="1" x="20.406" text-anchor="start" y="12.5" textLength="100.33010864257812" style="font-family: Arial, Helvetica Neue, Helvetica, sans-serif;">Sumar todos los</tspan><tspan xml:space="preserve" text-rendering="optimizeSpeed" font-size="13.88888888888889" font-weight="normal" font-style="normal" fill="#333333" opacity="1" x="45.489" text-anchor="start" y="28.125" textLength="54.02287292480469" style="font-family: Arial, Helvetica Neue, Helvetica, sans-serif;">números</tspan><tspan xml:space="preserve" text-rendering="optimizeSpeed" font-size="13.88888888888889" font-weight="normal" font-style="normal" fill="#333333" opacity="1" x="0" text-anchor="start" y="43.75" textLength="142.77952575683594" style="font-family: Arial, Helvetica Neue, Helvetica, sans-serif;">- calcular el módulo del</tspan><tspan xml:space="preserve" text-rendering="optimizeSpeed" font-size="13.88888888888889" font-weight="normal" font-style="normal" fill="#333333" opacity="1" x="43.939" text-anchor="start" y="59.375" textLength="57.121307373046875" style="font-family: Arial, Helvetica Neue, Helvetica, sans-serif;">resultado</tspan></text></g></g><g width="200.667" height="0" transform="scale(1,1) translate(474.833,746.125)"><g fill="#545454" stroke="#545454" stroke-opacity="1" transform="scale(1,1) translate(0,0)"><path fill="none" stroke-width="1" stroke-dasharray="none" d="M50,0 L50,0 M0,0 L40,0 M200.667,0 L200.667,0 M50,0 L50,0"/><g><g stroke-dasharray="none"><path d="M40,-5L50,0L40,5z" stroke="none" fill-opacity="1"/></g></g></g></g><g width="200" height="100" transform="scale(1,1) translate(274.833,696.125)"><g transform="scale(1,1) translate(0,0)" stroke="#7F7F7F" fill="url(#ba21ace0-142f-4b01-8840-2fbc7fd81840)" stroke-opacity="1" filter="url(#43487968-95ec-45d8-9e2f-deace1596cd2)"><linearGradient id="ba21ace0-142f-4b01-8840-2fbc7fd81840" x1="100" y1="0" x2="100" y2="100" gradientUnits="userSpaceOnUse"><stop offset="0%" style="stop-color:#C4D5E6;stop-opacity:1;"/><stop offset="100%" style="stop-color:#B6CDE4;stop-opacity:1;"/></linearGradient><path d="M100,0 L200,50 L100,100 L0,50 L100,0 z" stroke-width="1" stroke-dasharray="none"/></g><g width="99.5" height="49.5" transform="scale(1,1) translate(50.25,25.25)"><text width="99.5" height="31.249998092651367" transform="scale(1,1) translate(0,9.125000953674316)" xml:space="preserve"><tspan xml:space="preserve" text-rendering="optimizeSpeed" font-size="13.88888888888889" font-weight="normal" font-style="normal" fill="#333333" opacity="1" x="0.734" text-anchor="start" y="12.5" textLength="94.1738510131836" style="font-family: Arial, Helvetica Neue, Helvetica, sans-serif;">el resultado del</tspan><tspan xml:space="preserve" text-rendering="optimizeSpeed" font-size="13.88888888888889" font-weight="normal" font-style="normal" fill="#333333" opacity="1" x="15.206" text-anchor="start" y="28.125" textLength="69.0879898071289" style="font-family: Arial, Helvetica Neue, Helvetica, sans-serif;">módulo = 0</tspan></text></g></g><g width="149.667" height="75.167" transform="scale(1,1) translate(300,847.125)"><g transform="scale(1,1) translate(0,0)" stroke="#7F7F7F" fill="url(#4857d698-cec0-41fb-9690-9e467495d39f)" stroke-opacity="1" filter="url(#43487968-95ec-45d8-9e2f-deace1596cd2)"><linearGradient id="4857d698-cec0-41fb-9690-9e467495d39f" x1="74.66666666666666" y1="0" x2="74.66666666666666" y2="74.97741932006453" gradientUnits="userSpaceOnUse"><stop offset="0%" style="stop-color:#C4D5E6;stop-opacity:1;"/><stop offset="100%" style="stop-color:#B6CDE4;stop-opacity:1;"/></linearGradient><path d="M0,65.145 L0,65.145 L0,0 L0,0 L0,0 L149.333,0 L149.333,0 L149.333,0 L149.333,65.145 L149.333,65.145 L149.333,65.145 L148.566,64.785 L147.798,64.433 L147.031,64.087 L146.264,63.749 L145.497,63.419 L144.73,63.096 L143.963,62.78 L143.196,62.471 L142.43,62.17 L141.663,61.876 L140.897,61.59 L140.131,61.31 L139.365,61.039 L138.599,60.774 L137.833,60.517 L137.068,60.267 L136.302,60.025 L135.537,59.79 L134.772,59.562 L134.007,59.342 L133.242,59.129 L132.477,58.923 L131.713,58.725 L130.948,58.534 L130.184,58.35 L129.42,58.174 L128.656,58.005 L127.892,57.843 L127.128,57.689 L126.364,57.542 L125.601,57.402 L124.837,57.27 L124.074,57.145 L123.311,57.028 L122.548,56.917 L121.785,56.815 L121.022,56.719 L120.26,56.631 L119.497,56.55 L118.735,56.477 L117.973,56.41 L117.211,56.352 L116.449,56.3 L115.687,56.256 L114.926,56.219 L114.164,56.19 L113.403,56.168 L112.642,56.153 L111.88,56.146 L111.12,56.146 L110.359,56.153 L109.598,56.168 L108.838,56.19 L108.077,56.219 L107.317,56.256 L106.557,56.3 L105.797,56.352 L105.037,56.41 L104.277,56.477 L103.518,56.55 L102.758,56.631 L101.999,56.719 L101.24,56.815 L100.481,56.917 L99.722,57.028 L98.963,57.145 L98.204,57.27 L97.446,57.402 L96.687,57.542 L95.929,57.689 L95.171,57.843 L94.413,58.005 L93.655,58.174 L92.898,58.35 L92.14,58.534 L91.383,58.725 L90.626,58.923 L89.868,59.129 L89.111,59.342 L88.355,59.562 L87.598,59.79 L86.841,60.025 L86.085,60.267 L85.328,60.517 L84.572,60.774 L83.816,61.039 L83.06,61.31 L82.305,61.59 L81.549,61.876 L80.793,62.17 L80.038,62.471 L79.283,62.78 L78.528,63.096 L77.773,63.419 L77.018,63.749 L76.263,64.087 L75.509,64.433 L74.754,64.785 L74,65.145 L74,65.145 L74,65.145 L73.193,65.538 L72.386,65.924 L71.581,66.301 L70.777,66.67 L69.975,67.031 L69.174,67.384 L68.373,67.73 L67.575,68.067 L66.777,68.396 L65.98,68.717 L65.185,69.03 L64.391,69.335 L63.598,69.632 L62.807,69.921 L62.017,70.202 L61.227,70.475 L60.44,70.739 L59.653,70.996 L58.867,71.245 L58.083,71.486 L57.3,71.719 L56.519,71.943 L55.738,72.16 L54.959,72.369 L54.181,72.57 L53.404,72.762 L52.628,72.947 L51.854,73.123 L51.081,73.292 L50.309,73.452 L49.538,73.605 L48.768,73.749 L48,73.886 L47.233,74.014 L46.467,74.135 L45.702,74.247 L44.939,74.351 L44.177,74.448 L43.416,74.536 L42.656,74.616 L41.898,74.688 L41.14,74.753 L40.384,74.809 L39.63,74.857 L38.876,74.897 L38.124,74.929 L37.373,74.953 L36.623,74.969 L35.874,74.977 L35.126,74.977 L34.38,74.969 L33.635,74.953 L32.891,74.929 L32.149,74.897 L31.407,74.857 L30.667,74.809 L29.928,74.753 L29.191,74.688 L28.454,74.616 L27.719,74.536 L26.985,74.448 L26.252,74.351 L25.521,74.247 L24.79,74.135 L24.061,74.014 L23.333,73.886 L22.607,73.749 L21.881,73.605 L21.157,73.452 L20.434,73.292 L19.712,73.123 L18.992,72.947 L18.272,72.762 L17.554,72.57 L16.837,72.369 L16.122,72.16 L15.407,71.943 L14.694,71.719 L13.982,71.486 L13.272,71.245 L12.562,70.996 L11.854,70.739 L11.147,70.475 L10.441,70.202 L9.736,69.921 L9.033,69.632 L8.331,69.335 L7.63,69.03 L6.93,68.717 L6.231,68.396 L5.534,68.067 L4.838,67.73 L4.143,67.384 L3.45,67.031 L2.757,66.67 L2.066,66.301 L1.376,65.924 L0.687,65.538 L0,65.145 L0,65.145 z" stroke-width="1" stroke-dasharray="none"/></g><g width="144.66666666666666" height="46.2281460134486" transform="scale(1,1) translate(2.5,2.5)"><text width="144.66666666666666" height="15.624999046325684" transform="scale(1,1) translate(0,15.301573483561459)" xml:space="preserve"><tspan xml:space="preserve" text-rendering="optimizeSpeed" font-size="13.88888888888889" font-weight="normal" font-style="normal" fill="#333333" opacity="1" x="44.163" text-anchor="start" y="12.5" textLength="56.34159469604492" style="font-family: Arial, Helvetica Neue, Helvetica, sans-serif;">Es válido</tspan></text></g></g><g width="149.667" height="75.167" transform="scale(1,1) translate(524.833,708.542)"><g transform="scale(1,1) translate(0,0)" stroke="#7F7F7F" fill="url(#7580cb0a-4bb1-4bf5-b165-f737eb3eea56)" stroke-opacity="1" filter="url(#43487968-95ec-45d8-9e2f-deace1596cd2)"><linearGradient id="7580cb0a-4bb1-4bf5-b165-f737eb3eea56" x1="74.66666666666666" y1="0" x2="74.66666666666666" y2="74.97741932006453" gradientUnits="userSpaceOnUse"><stop offset="0%" style="stop-color:#C4D5E6;stop-opacity:1;"/><stop offset="100%" style="stop-color:#B6CDE4;stop-opacity:1;"/></linearGradient><path d="M0,65.145 L0,65.145 L0,0 L0,0 L0,0 L149.333,0 L149.333,0 L149.333,0 L149.333,65.145 L149.333,65.145 L149.333,65.145 L148.566,64.785 L147.798,64.433 L147.031,64.087 L146.264,63.749 L145.497,63.419 L144.73,63.096 L143.963,62.78 L143.196,62.471 L142.43,62.17 L141.663,61.876 L140.897,61.59 L140.131,61.31 L139.365,61.039 L138.599,60.774 L137.833,60.517 L137.068,60.267 L136.302,60.025 L135.537,59.79 L134.772,59.562 L134.007,59.342 L133.242,59.129 L132.477,58.923 L131.713,58.725 L130.948,58.534 L130.184,58.35 L129.42,58.174 L128.656,58.005 L127.892,57.843 L127.128,57.689 L126.364,57.542 L125.601,57.402 L124.837,57.27 L124.074,57.145 L123.311,57.028 L122.548,56.917 L121.785,56.815 L121.022,56.719 L120.26,56.631 L119.497,56.55 L118.735,56.477 L117.973,56.41 L117.211,56.352 L116.449,56.3 L115.687,56.256 L114.926,56.219 L114.164,56.19 L113.403,56.168 L112.642,56.153 L111.88,56.146 L111.12,56.146 L110.359,56.153 L109.598,56.168 L108.838,56.19 L108.077,56.219 L107.317,56.256 L106.557,56.3 L105.797,56.352 L105.037,56.41 L104.277,56.477 L103.518,56.55 L102.758,56.631 L101.999,56.719 L101.24,56.815 L100.481,56.917 L99.722,57.028 L98.963,57.145 L98.204,57.27 L97.446,57.402 L96.687,57.542 L95.929,57.689 L95.171,57.843 L94.413,58.005 L93.655,58.174 L92.898,58.35 L92.14,58.534 L91.383,58.725 L90.626,58.923 L89.868,59.129 L89.111,59.342 L88.355,59.562 L87.598,59.79 L86.841,60.025 L86.085,60.267 L85.328,60.517 L84.572,60.774 L83.816,61.039 L83.06,61.31 L82.305,61.59 L81.549,61.876 L80.793,62.17 L80.038,62.471 L79.283,62.78 L78.528,63.096 L77.773,63.419 L77.018,63.749 L76.263,64.087 L75.509,64.433 L74.754,64.785 L74,65.145 L74,65.145 L74,65.145 L73.193,65.538 L72.386,65.924 L71.581,66.301 L70.777,66.67 L69.975,67.031 L69.174,67.384 L68.373,67.73 L67.575,68.067 L66.777,68.396 L65.98,68.717 L65.185,69.03 L64.391,69.335 L63.598,69.632 L62.807,69.921 L62.017,70.202 L61.227,70.475 L60.44,70.739 L59.653,70.996 L58.867,71.245 L58.083,71.486 L57.3,71.719 L56.519,71.943 L55.738,72.16 L54.959,72.369 L54.181,72.57 L53.404,72.762 L52.628,72.947 L51.854,73.123 L51.081,73.292 L50.309,73.452 L49.538,73.605 L48.768,73.749 L48,73.886 L47.233,74.014 L46.467,74.135 L45.702,74.247 L44.939,74.351 L44.177,74.448 L43.416,74.536 L42.656,74.616 L41.898,74.688 L41.14,74.753 L40.384,74.809 L39.63,74.857 L38.876,74.897 L38.124,74.929 L37.373,74.953 L36.623,74.969 L35.874,74.977 L35.126,74.977 L34.38,74.969 L33.635,74.953 L32.891,74.929 L32.149,74.897 L31.407,74.857 L30.667,74.809 L29.928,74.753 L29.191,74.688 L28.454,74.616 L27.719,74.536 L26.985,74.448 L26.252,74.351 L25.521,74.247 L24.79,74.135 L24.061,74.014 L23.333,73.886 L22.607,73.749 L21.881,73.605 L21.157,73.452 L20.434,73.292 L19.712,73.123 L18.992,72.947 L18.272,72.762 L17.554,72.57 L16.837,72.369 L16.122,72.16 L15.407,71.943 L14.694,71.719 L13.982,71.486 L13.272,71.245 L12.562,70.996 L11.854,70.739 L11.147,70.475 L10.441,70.202 L9.736,69.921 L9.033,69.632 L8.331,69.335 L7.63,69.03 L6.93,68.717 L6.231,68.396 L5.534,68.067 L4.838,67.73 L4.143,67.384 L3.45,67.031 L2.757,66.67 L2.066,66.301 L1.376,65.924 L0.687,65.538 L0,65.145 L0,65.145 z" stroke-width="1" stroke-dasharray="none"/></g><g width="144.66666666666666" height="46.2281460134486" transform="scale(1,1) translate(2.5,2.5)"><text width="144.66666666666666" height="15.624999046325684" transform="scale(1,1) translate(0,15.301573483561459)" xml:space="preserve"><tspan xml:space="preserve" text-rendering="optimizeSpeed" font-size="13.88888888888889" font-weight="normal" font-style="normal" fill="#333333" opacity="1" x="38.759" text-anchor="start" y="12.5" textLength="67.14887237548828" style="font-family: Arial, Helvetica Neue, Helvetica, sans-serif;">Es invalido</tspan></text></g></g></g></svg>